<svg xmlns='http://www.w3.org/2000/svg' width='400' height='300'>
  <g transform="translate(50,50)">
    <rect x="0" y="0" width="300" height="200" rx="10" fill="#C06C88"/>
    <text x="15" y="25" fill="#FFFFFF" font-size="16" text-anchor="start">Search AI Models</text>
    <rect x="10" y="40" width="280" height="30" rx="5" fill="#B7D7CD"/>
    <rect x="10" y="80" width="280" height="200" rx="10" fill="#411C56"/>
    <g transform="translate(15,90)">
      <rect x="0" y="0" width="50" height="50" fill="#FFFFFF" rx="10"/>
      <text x="25" y="25" fill="#000000" font-size="12" text-anchor="middle">Model 1</text>
    </g>
    <g transform="translate(70,90)">
      <rect x="0" y="0" width="50" height="50" fill="#FFFFFF" rx="10"/>
      <text x="25" y="25" fill="#000000" font-size="12" text-anchor="middle">Model 2</text>
    </g>
    <g transform="translate(125,90)">
      <rect x="0" y="0" width="50" height="50" fill="#FFFFFF" rx="10"/>
      <text x="25" y="25" fill="#000000" font-size="12" text-anchor="middle">Model 3</text>
    </g>
    <g transform="translate(180,90)">
      <rect x="0" y="0" width="50" height="50" fill="#FFFFFF" rx="10"/>
      <text x="25" y="25" fill="#000000" font-size="12" text-anchor="middle">Model 4</text>
    </g>
    <g transform="translate(235,90)">
      <rect x="0" y="0" width="50" height="50" fill="#FFFFFF" rx="10"/>
      <text x="25" y="25" fill="#000000" font-size="12" text-anchor="middle">Model 5</text>
    </g>
    <rect x="10" y="240" width="280" height="30" rx="5" fill="#B7D7CD"/>
    <text x="15" y="255" fill="#000000" font-size="12" text-anchor="start">Performance Metrics</text>
    <g transform="translate(15,270)">
      <rect x="0" y="0" width="150" height="20" fill="#FFFFFF" rx="10"/>
      <text x="75" y="15" fill="#000000" font-size="12" text-anchor="middle">Accuracy</text>
    </g>
    <g transform="translate(170,270)">
      <rect x="0" y="0" width="150" height="20" fill="#FFFFFF" rx="10"/>
      <text x="75" y="15" fill="#000000" font-size="12" text-anchor="middle">Precision</text>
    </g>
    <g transform="translate(315,270)">
      <rect x="0" y="0" width="100" height="20" fill="#FFFFFF" rx="10"/>
      <text x="50" y="15" fill="#000000" font-size="12" text-anchor="middle">Chart</text>
    </g>
  </g>
</svg>