<svg xmlns="http://www.w3.org/2000/svg" width="400" height="300">
<g transform="translate(200,150) scale(0.5)">
<rect x="-20" y="-30" width="100" height="60" fill="#B7D7CD" rx="10"/>
<rect x="-10" y="-20" width="80" height="40" fill="#C06C88" rx="10"/>
<rect x="10" y="-10" width="60" height="20" fill="#411C56" rx="10"/>
<rect x="20" y="0" width="40" height="10" fill="#B7D7CD" rx="10"/>
<rect x="30" y="10" width="20" height="5" fill="#C06C88" rx="10"/>
<text x="-15" y="5" fill="#000" font-size="12"
transform="rotate(-45 0, 0)">Sales Dashboard</text>
<text x="-5" y="-5" fill="#000" font-size="10">Filter by Region</text>
<text x="5" y="5" fill="#000" font-size="10">Filter by Product</text>
<text x="15" y="-5" fill="#000" font-size="10">Sales Metrics</text>
<path d="M 0,0 L 10,0 L 10,10 L 0,10 Z" fill="#B7D7CD"/>
<path d="M 0,10 L -10,10 L -10,20 L 0,20 Z" fill="#C06C88"/>
<circle cx="-2" cy="-2" r="2" fill="#411C56"/>
<circle cx="2" cy="-2" r="2" fill="#B7D7CD"/>
</g>
</svg>