<svg xmlns="http://www.w3.org/2000/svg" width="800" height="600" viewBox="0 0 800 600">
    
  <defs>
    <linearGradient id="bgGrad" x1="0%" y1="0%" x2="100%" y2="100%">
      <stop offset="0%" stop-color="#0B0F19" />
      <stop offset="100%" stop-color="#111827" />
    </linearGradient>
    <linearGradient id="primaryGrad" x1="0%" y1="0%" x2="100%" y2="0%">
      <stop offset="0%" stop-color="#6366F1" />
      <stop offset="100%" stop-color="#8B5CF6" />
    </linearGradient>
    <linearGradient id="tealGrad" x1="0%" y1="0%" x2="100%" y2="0%">
      <stop offset="0%" stop-color="#06B6D4" />
      <stop offset="100%" stop-color="#0D9488" />
    </linearGradient>
    <linearGradient id="dangerGrad" x1="0%" y1="0%" x2="100%" y2="0%">
      <stop offset="0%" stop-color="#EF4444" />
      <stop offset="100%" stop-color="#DC2626" />
    </linearGradient>
    <linearGradient id="cardGrad" x1="0%" y1="0%" x2="0%" y2="100%">
      <stop offset="0%" stop-color="#1F2937" stop-opacity="0.8" />
      <stop offset="100%" stop-color="#111827" stop-opacity="0.9" />
    </linearGradient>
    <filter id="shadow" x="-5%" y="-5%" width="110%" height="110%">
      <feDropShadow dx="0" dy="8" stdDeviation="12" flood-color="#000000" flood-opacity="0.5"/>
    </filter>
    <filter id="glow" x="-10%" y="-10%" width="120%" height="120%">
      <feDropShadow dx="0" dy="0" stdDeviation="6" flood-color="#6366F1" flood-opacity="0.4"/>
    </filter>
  </defs>
  <style>
    .title { font-family: system-ui, -apple-system, sans-serif; font-weight: 700; fill: #F9FAFB; }
    .subtitle { font-family: system-ui, -apple-system, sans-serif; font-weight: 500; fill: #9CA3AF; }
    .body { font-family: system-ui, -apple-system, sans-serif; font-weight: 400; fill: #D1D5DB; }
    .accent { font-family: system-ui, -apple-system, sans-serif; font-weight: 600; fill: #818CF8; }
    .btn-text { font-family: system-ui, -apple-system, sans-serif; font-weight: 600; fill: #FFFFFF; text-anchor: middle; }
    .label { font-family: system-ui, -apple-system, sans-serif; font-weight: 500; fill: #9CA3AF; font-size: 12px; }
  </style>
  
    
  <!-- Background Frame -->
  <rect width="800" height="600" rx="16" fill="url(#bgGrad)" stroke="#1F2937" stroke-width="2"/>
  <rect x="2" y="2" width="796" height="596" rx="14" fill="none" stroke="#374151" stroke-width="1" opacity="0.3"/>
  
  <!-- Window Header Bar (Mac style) -->
  <circle cx="24" cy="24" r="6" fill="#EF4444"/>
  <circle cx="44" cy="24" r="6" fill="#F59E0B"/>
  <circle cx="64" cy="24" r="6" fill="#10B981"/>
  
  <text x="400" y="28" class="subtitle" font-size="13" text-anchor="middle" letter-spacing="0.5">Realtime Chat App With User Avatars And Chat Filtering Medium Chat App</text>
  <line x1="16" y1="48" x2="784" y2="48" stroke="#1F2937" stroke-width="1"/>
  
    
    <!-- Sidebar Contacts List -->
    <rect x="16" y="64" width="220" height="520" rx="12" fill="url(#cardGrad)" stroke="#1F2937" stroke-width="1.5"/>
    <text x="32" y="96" class="title" font-size="17">Messages</text>
    
    <!-- Search Contact -->
    <rect x="32" y="112" width="188" height="32" rx="8" fill="#111827" stroke="#374151" stroke-width="1"/>
    <text x="44" y="132" class="subtitle" font-size="12">Search contacts...</text>
    
    <!-- Contact 1 (Selected) -->
    <g transform="translate(24, 156)">
      <rect width="204" height="60" rx="8" fill="#1F2937" opacity="0.6"/>
      <circle cx="34" cy="30" r="18" fill="url(#primaryGrad)"/>
      <text x="34" y="34" class="btn-text" font-size="14">JD</text>
      <text x="62" y="28" class="title" font-size="13">John Doe</text>
      <text x="62" y="44" class="subtitle" font-size="11">Typing indicator...</text>
      <circle cx="190" cy="30" r="4" fill="#06B6D4"/>
    </g>
    
    <!-- Contact 2 -->
    <g transform="translate(24, 224)">
      <circle cx="34" cy="30" r="18" fill="#374151"/>
      <text x="34" y="34" class="btn-text" font-size="14">AS</text>
      <text x="62" y="28" class="title" font-size="13">Alice Smith</text>
      <text x="62" y="44" class="subtitle" font-size="11">Yeah, see you tomorrow!</text>
    </g>
    
    <!-- Contact 3 -->
    <g transform="translate(24, 292)">
      <circle cx="34" cy="30" r="18" fill="#0D9488"/>
      <text x="34" y="34" class="btn-text" font-size="14">MB</text>
      <text x="62" y="28" class="title" font-size="13">Mike Brown</text>
      <text x="62" y="44" class="subtitle" font-size="11">Let's fix that bug now.</text>
    </g>
    
    <!-- Chat Area -->
    <g transform="translate(252, 64)">
      <rect width="532" height="520" rx="12" fill="url(#cardGrad)" stroke="#1F2937" stroke-width="1.5"/>
      
      <!-- Top Chat Header -->
      <circle cx="36" cy="36" r="18" fill="url(#primaryGrad)"/>
      <text x="36" y="40" class="btn-text" font-size="14">JD</text>
      <text x="64" y="32" class="title" font-size="14">John Doe</text>
      <text x="64" y="48" class="subtitle" font-size="11" fill="#10B981">● Online</text>
      <line x1="16" y1="64" x2="516" y2="64" stroke="#1F2937" stroke-width="1"/>
      
      <!-- Message Bubbles -->
      <!-- Message 1 (Received) -->
      <g transform="translate(16, 88)">
        <rect width="320" height="64" rx="12" fill="#1F2937" stroke="#374151" stroke-width="1"/>
        <text x="16" y="28" class="body" font-size="13">Hey, did you look at the new API mockups?</text>
        <text x="16" y="48" class="label" font-size="10">10:24 AM</text>
      </g>
      
      <!-- Message 2 (Sent) -->
      <g transform="translate(196, 168)">
        <rect width="320" height="64" rx="12" fill="#4338CA" stroke="#6366F1" stroke-width="1"/>
        <text x="16" y="28" class="btn-text" font-size="13" text-anchor="start">Yes, I just generated them! They look super glassy.</text>
        <text x="16" y="48" class="btn-text" font-size="10" text-anchor="start" opacity="0.6">10:25 AM</text>
      </g>
      
      <!-- Message 3 (Received - Typing) -->
      <g transform="translate(16, 248)">
        <rect width="120" height="40" rx="12" fill="#1F2937" stroke="#374151" stroke-width="1"/>
        <circle cx="36" cy="20" r="4" fill="#9CA3AF"/>
        <circle cx="52" cy="20" r="4" fill="#9CA3AF"/>
        <circle cx="68" cy="20" r="4" fill="#9CA3AF"/>
      </g>
      
      <!-- Input Area -->
      <line x1="16" y1="440" x2="516" y2="440" stroke="#1F2937" stroke-width="1"/>
      <rect x="16" y="456" width="420" height="48" rx="24" fill="#111827" stroke="#374151" stroke-width="1.5"/>
      <text x="36" y="485" class="subtitle" font-size="13">Type a message...</text>
      
      <!-- Send Button -->
      <g transform="translate(452, 456)" filter="url(#shadow)">
        <circle cx="24" cy="24" r="24" fill="url(#primaryGrad)"/>
        <path d="M16 24L22 18L32 24L22 30Z" fill="none" stroke="white" stroke-width="2" stroke-linejoin="round"/>
      </g>
    </g>
    
  </svg>