<svg xmlns="http://www.w3.org/2000/svg" width="800" height="600" viewBox="0 0 800 600">
    
  <defs>
    <linearGradient id="bgGrad" x1="0%" y1="0%" x2="100%" y2="100%">
      <stop offset="0%" stop-color="#0B0F19" />
      <stop offset="100%" stop-color="#111827" />
    </linearGradient>
    <linearGradient id="primaryGrad" x1="0%" y1="0%" x2="100%" y2="0%">
      <stop offset="0%" stop-color="#6366F1" />
      <stop offset="100%" stop-color="#8B5CF6" />
    </linearGradient>
    <linearGradient id="tealGrad" x1="0%" y1="0%" x2="100%" y2="0%">
      <stop offset="0%" stop-color="#06B6D4" />
      <stop offset="100%" stop-color="#0D9488" />
    </linearGradient>
    <linearGradient id="dangerGrad" x1="0%" y1="0%" x2="100%" y2="0%">
      <stop offset="0%" stop-color="#EF4444" />
      <stop offset="100%" stop-color="#DC2626" />
    </linearGradient>
    <linearGradient id="cardGrad" x1="0%" y1="0%" x2="0%" y2="100%">
      <stop offset="0%" stop-color="#1F2937" stop-opacity="0.8" />
      <stop offset="100%" stop-color="#111827" stop-opacity="0.9" />
    </linearGradient>
    <filter id="shadow" x="-5%" y="-5%" width="110%" height="110%">
      <feDropShadow dx="0" dy="8" stdDeviation="12" flood-color="#000000" flood-opacity="0.5"/>
    </filter>
    <filter id="glow" x="-10%" y="-10%" width="120%" height="120%">
      <feDropShadow dx="0" dy="0" stdDeviation="6" flood-color="#6366F1" flood-opacity="0.4"/>
    </filter>
  </defs>
  <style>
    .title { font-family: system-ui, -apple-system, sans-serif; font-weight: 700; fill: #F9FAFB; }
    .subtitle { font-family: system-ui, -apple-system, sans-serif; font-weight: 500; fill: #9CA3AF; }
    .body { font-family: system-ui, -apple-system, sans-serif; font-weight: 400; fill: #D1D5DB; }
    .accent { font-family: system-ui, -apple-system, sans-serif; font-weight: 600; fill: #818CF8; }
    .btn-text { font-family: system-ui, -apple-system, sans-serif; font-weight: 600; fill: #FFFFFF; text-anchor: middle; }
    .label { font-family: system-ui, -apple-system, sans-serif; font-weight: 500; fill: #9CA3AF; font-size: 12px; }
  </style>
  
    
  <!-- Background Frame -->
  <rect width="800" height="600" rx="16" fill="url(#bgGrad)" stroke="#1F2937" stroke-width="2"/>
  <rect x="2" y="2" width="796" height="596" rx="14" fill="none" stroke="#374151" stroke-width="1" opacity="0.3"/>
  
  <!-- Window Header Bar (Mac style) -->
  <circle cx="24" cy="24" r="6" fill="#EF4444"/>
  <circle cx="44" cy="24" r="6" fill="#F59E0B"/>
  <circle cx="64" cy="24" r="6" fill="#10B981"/>
  
  <text x="400" y="28" class="subtitle" font-size="13" text-anchor="middle" letter-spacing="0.5">Rich Media Content Management With Advanced Filtering And Analytics Hard Cms</text>
  <line x1="16" y1="48" x2="784" y2="48" stroke="#1F2937" stroke-width="1"/>
  
    
    <!-- Sidebar -->
    <rect x="16" y="64" width="180" height="520" rx="12" fill="url(#cardGrad)" stroke="#1F2937" stroke-width="1.5"/>
    <text x="36" y="100" class="title" font-size="16">DevArena Admin</text>
    <rect x="28" y="120" width="156" height="36" rx="8" fill="#1F2937" opacity="0.5"/>
    <rect x="30" y="122" width="4" height="32" rx="2" fill="#6366F1"/>
    <text x="48" y="142" class="accent" font-size="13">Dashboard</text>
    
    <text x="48" y="186" class="subtitle" font-size="13">Users List</text>
    <text x="48" y="226" class="subtitle" font-size="13">Ladders</text>
    <text x="48" y="266" class="subtitle" font-size="13">Reports</text>
    <text x="48" y="306" class="subtitle" font-size="13">API Keys</text>
    
    <!-- Main Content Area -->
    <g transform="translate(212, 64)">
      <!-- Welcome Header -->
      <text x="0" y="24" class="title" font-size="22">Analytics Overview</text>
      <text x="0" y="44" class="subtitle" font-size="13">Real-time system telemetry and metric logging</text>
      
      <!-- Metric Cards (3 Column Grid) -->
      <!-- Card 1 -->
      <g transform="translate(0, 70)" filter="url(#shadow)">
        <rect width="176" height="100" rx="12" fill="url(#cardGrad)" stroke="#1F2937" stroke-width="1.5"/>
        <text x="16" y="28" class="label">API LATENCY</text>
        <text x="16" y="60" class="title" font-size="24">12.4 ms</text>
        <text x="16" y="82" class="body" font-size="11" fill="#10B981">↑ 2.4% vs last hr</text>
      </g>
      
      <!-- Card 2 -->
      <g transform="translate(192, 70)" filter="url(#shadow)">
        <rect width="176" height="100" rx="12" fill="url(#cardGrad)" stroke="#1F2937" stroke-width="1.5"/>
        <text x="16" y="28" class="label">DB LOAD</text>
        <text x="16" y="60" class="title" font-size="24">1 ms</text>
        <text x="16" y="82" class="body" font-size="11" fill="#10B981">Stable (Optimal)</text>
      </g>
      
      <!-- Card 3 -->
      <g transform="translate(384, 70)" filter="url(#shadow)">
        <rect width="188" height="100" rx="12" fill="url(#cardGrad)" stroke="#1F2937" stroke-width="1.5"/>
        <text x="16" y="28" class="label">ACTIVE SESSIONS</text>
        <text x="16" y="60" class="title" font-size="24">1,482</text>
        <text x="16" y="82" class="body" font-size="11" fill="#8B5CF6">Peak load hours</text>
      </g>
      
      <!-- Large Chart Block -->
      <g transform="translate(0, 190)" filter="url(#shadow)">
        <rect width="572" height="330" rx="12" fill="url(#cardGrad)" stroke="#1F2937" stroke-width="1.5"/>
        <text x="20" y="32" class="title" font-size="15">Response Latency Trend (24h)</text>
        
        <!-- Y Axis Guidelines -->
        <line x1="60" y1="70" x2="532" y2="70" stroke="#1F2937" stroke-width="1" stroke-dasharray="4 4"/>
        <line x1="60" y1="130" x2="532" y2="130" stroke="#1F2937" stroke-width="1" stroke-dasharray="4 4"/>
        <line x1="60" y1="190" x2="532" y2="190" stroke="#1F2937" stroke-width="1" stroke-dasharray="4 4"/>
        <line x1="60" y1="250" x2="532" y2="250" stroke="#1F2937" stroke-width="1"/>
        
        <!-- Axis labels -->
        <text x="50" y="74" class="label" text-anchor="end">100 ms</text>
        <text x="50" y="134" class="label" text-anchor="end">50 ms</text>
        <text x="50" y="194" class="label" text-anchor="end">25 ms</text>
        <text x="50" y="254" class="label" text-anchor="end">0 ms</text>
        
        <!-- X Axis labels -->
        <text x="100" y="276" class="label" text-anchor="middle">00:00</text>
        <text x="180" y="276" class="label" text-anchor="middle">04:00</text>
        <text x="260" y="276" class="label" text-anchor="middle">08:00</text>
        <text x="340" y="276" class="label" text-anchor="middle">12:00</text>
        <text x="420" y="276" class="label" text-anchor="middle">16:00</text>
        <text x="500" y="276" class="label" text-anchor="middle">20:00</text>
        
        <!-- Chart Curve (Glow Line & Area fill) -->
        <path d="M 100,230 Q 140,210 180,110 T 260,190 T 340,160 T 420,80 T 500,210 L 500,250 L 100,250 Z" fill="url(#primaryGrad)" fill-opacity="0.15"/>
        <path d="M 100,230 Q 140,210 180,110 T 260,190 T 340,160 T 420,80 T 500,210" fill="none" stroke="url(#primaryGrad)" stroke-width="3" filter="url(#glow)"/>
        
        <circle cx="420" cy="80" r="5" fill="#8B5CF6" stroke="#FFFFFF" stroke-width="2"/>
        <rect x="400" y="35" width="80" height="30" rx="6" fill="#111827" stroke="#374151" stroke-width="1"/>
        <text x="440" y="54" class="btn-text" font-size="11">82.1 ms</text>
      </g>
    </g>
    
  </svg>